<svg xmlns="http://www.w3.org/2000/svg" xmlns:xlink="http://www.w3.org/1999/xlink" width="64" height="64" viewBox="0 0 400 400" version="1.1"><g id="surface1"><path style=" stroke:none;fill-rule:nonzero;fill:rgb(61.176473%,21.568628%,92.941177%);fill-opacity:1;" d="M 124.667969 124.066406 C 118.734375 125.800781 110.667969 133.066406 107.867188 139.265625 C 104.800781 146 103.933594 280.734375 106.933594 283.734375 C 109.800781 286.601562 112.199219 285.464844 125.132812 275 C 132.199219 269.332031 143.332031 260.332031 149.933594 255 L 161.867188 245.332031 L 217.265625 245.332031 C 297 245.265625 294.667969 247.132812 294.667969 183.667969 C 294.667969 137.265625 291.867188 128.734375 275.066406 124.066406 C 268.800781 122.332031 130.601562 122.332031 124.667969 124.066406 Z M 274.332031 135.535156 C 282.867188 139.667969 283.332031 142.398438 283.132812 185.601562 C 282.800781 239.601562 289.734375 234.667969 213.800781 234.667969 L 158 234.667969 L 139.332031 250 C 129.066406 258.398438 119.601562 265.933594 118.265625 266.734375 C 116 268.066406 115.933594 265.265625 116.265625 206.199219 C 116.734375 137.199219 116.066406 141.933594 126 135.800781 C 131.867188 132.199219 266.734375 132 274.332031 135.535156 Z M 274.332031 135.535156 " /></g></svg>