<?xml version="1.0" standalone="no"?>
<!DOCTYPE svg PUBLIC "-//W3C//DTD SVG 20010904//EN"
 "http://www.w3.org/TR/2001/REC-SVG-20010904/DTD/svg10.dtd">
<svg version="1.0" xmlns="http://www.w3.org/2000/svg"
 width="500.000000pt" height="500.000000pt" viewBox="0 0 500.000000 500.000000"
 preserveAspectRatio="xMidYMid meet">
<metadata>
Created by potrace 1.10, written by Peter Selinger 2001-2011
</metadata>
<g transform="translate(0.000000,500.000000) scale(0.050000,-0.050000)"
fill="#bc36f5" stroke="none">
<path d="M2840 7222 c-165 -51 -343 -204 -413 -352 l-47 -100 0 -1562 c0
-1488 2 -1563 37 -1595 57 -52 117 -39 208 43 47 41 148 125 225 187 77 61
286 229 464 374 l324 263 1236 0 c1128 0 1245 3 1334 35 126 45 279 183 348
313 l54 102 0 930 c0 1115 -6 1140 -340 1317 l-100 53 -1640 4 c-902 1 -1663
-4 -1690 -12z m3320 -267 c48 -25 115 -80 149 -122 l61 -77 0 -896 0 -896 -61
-77 c-34 -42 -101 -97 -149 -122 l-88 -45 -1261 0 -1261 -1 -467 -381 c-257
-209 -468 -378 -470 -374 -27 56 23 2776 51 2829 44 79 144 164 213 179 29 6
62 15 73 18 11 4 718 8 1571 8 l1551 2 88 -45z"/>
</g>
</svg>
